<?xml version="1.0" encoding="UTF-8" standalone="no"?>
<svg
   xmlns:dc="http://purl.org/dc/elements/1.1/"
   xmlns:cc="http://creativecommons.org/ns#"
   xmlns:rdf="http://www.w3.org/1999/02/22-rdf-syntax-ns#"
   xmlns:svg="http://www.w3.org/2000/svg"
   xmlns="http://www.w3.org/2000/svg"
   xmlns:sodipodi="http://sodipodi.sourceforge.net/DTD/sodipodi-0.dtd"
   xmlns:inkscape="http://www.inkscape.org/namespaces/inkscape"
   viewBox="0 0 384 512"
   version="1.1"
   id="svg3795"
   sodipodi:docname="play-solid.svg"
   inkscape:version="0.92.5 (2060ec1f9f, 2020-04-08)">
  <metadata
     id="metadata3801">
    <rdf:RDF>
      <cc:Work
         rdf:about="">
        <dc:format>image/svg+xml</dc:format>
        <dc:type
           rdf:resource="http://purl.org/dc/dcmitype/StillImage" />
      </cc:Work>
    </rdf:RDF>
  </metadata>
  <defs
     id="defs3799" />
  <sodipodi:namedview
     pagecolor="#ffffff"
     bordercolor="#666666"
     borderopacity="1"
     objecttolerance="10"
     gridtolerance="10"
     guidetolerance="10"
     inkscape:pageopacity="0"
     inkscape:pageshadow="2"
     inkscape:window-width="2560"
     inkscape:window-height="1340"
     id="namedview3797"
     showgrid="false"
     inkscape:zoom="2.2265625"
     inkscape:cx="118.34386"
     inkscape:cy="256"
     inkscape:window-x="0"
     inkscape:window-y="0"
     inkscape:window-maximized="1"
     inkscape:current-layer="svg3795" />
  <!--! Font Awesome Pro 6.2.0 by @fontawesome - https://fontawesome.com License - https://fontawesome.com/license (Commercial License) Copyright 2022 Fonticons, Inc. -->
  <path
     d="M73 39c-14.8-9.1-33.4-9.4-48.5-.9S0 62.6 0 80V432c0 17.4 9.4 33.4 24.5 41.9s33.7 8.1 48.5-.9L361 297c14.3-8.7 23-24.2 23-41s-8.7-32.2-23-41L73 39z"
     id="path3793" />
  <path
     style="stroke-width:0.44912282;fill:#17be89;fill-opacity:1;stroke:none"
     d="M 38.310175,478.78347 C 28.48615,476.68231 20.070973,471.9255 13.242332,464.61345 6.3429412,457.22565 2.3161601,448.87796 0.78698316,438.79298 c -0.97343667,-6.41985 -0.97343667,-359.166111 0,-365.585962 C 3.4929533,55.361042 15.361682,40.933423 32.314572,34.8821 c 11.438961,-4.083129 25.758332,-3.238777 36.535954,2.154369 1.358597,0.679845 68.022074,41.281602 148.141054,90.226121 92.68312,56.61993 146.99646,90.05858 149.31507,91.9276 7.73191,6.23264 13.2124,14.89255 16.1365,25.49787 1.38735,5.03172 1.38735,17.59216 0,22.62388 -2.98452,10.82444 -8.92904,20.06888 -16.75148,26.05053 -3.36803,2.57547 -291.629428,178.96124 -296.332063,181.32418 -3.913211,1.96628 -8.746774,3.57299 -12.958266,4.30741 -5.197007,0.90628 -13.310766,0.81183 -18.091166,-0.21059 z"
     id="path3803"
     inkscape:connector-curvature="0" />
</svg>
